solid STL generated by MeshLab
  facet normal  5.773503e-01  5.773503e-01  5.773503e-01
    outer loop
      vertex   7.071068e-01  7.071068e-01  0.000000e+00
      vertex   0.000000e+00  7.071068e-01  7.071068e-01
      vertex   7.071068e-01  0.000000e+00  7.071068e-01
    endloop
  endfacet
  facet normal -5.773503e-01  5.773503e-01  5.773503e-01
    outer loop
      vertex  -7.071068e-01  7.071068e-01  0.000000e+00
      vertex  -7.071068e-01  0.000000e+00  7.071068e-01
      vertex   0.000000e+00  7.071068e-01  7.071068e-01
    endloop
  endfacet
  facet normal -5.773503e-01 -5.773503e-01  5.773503e-01
    outer loop
      vertex  -7.071068e-01 -7.071068e-01  0.000000e+00
      vertex   0.000000e+00 -7.071068e-01  7.071068e-01
      vertex  -7.071068e-01  0.000000e+00  7.071068e-01
    endloop
  endfacet
  facet normal  5.773503e-01 -5.773503e-01  5.773503e-01
    outer loop
      vertex   7.071068e-01 -7.071068e-01  0.000000e+00
      vertex   7.071068e-01  0.000000e+00  7.071068e-01
      vertex   0.000000e+00 -7.071068e-01  7.071068e-01
    endloop
  endfacet
  facet normal  5.773503e-01  5.773503e-01 -5.773503e-01
    outer loop
      vertex   7.071068e-01  7.071068e-01  0.000000e+00
      vertex   7.071068e-01  0.000000e+00 -7.071068e-01
      vertex   0.000000e+00  7.071068e-01 -7.071068e-01
    endloop
  endfacet
  facet normal -5.773503e-01  5.773503e-01 -5.773503e-01
    outer loop
      vertex  -7.071068e-01  7.071068e-01  0.000000e+00
      vertex   0.000000e+00  7.071068e-01 -7.071068e-01
      vertex  -7.071068e-01  0.000000e+00 -7.071068e-01
    endloop
  endfacet
  facet normal -5.773503e-01 -5.773503e-01 -5.773503e-01
    outer loop
      vertex  -7.071068e-01 -7.071068e-01  0.000000e+00
      vertex  -7.071068e-01  0.000000e+00 -7.071068e-01
      vertex   0.000000e+00 -7.071068e-01 -7.071068e-01
    endloop
  endfacet
  facet normal  5.773503e-01 -5.773503e-01 -5.773503e-01
    outer loop
      vertex   7.071068e-01 -7.071068e-01  0.000000e+00
      vertex   0.000000e+00 -7.071068e-01 -7.071068e-01
      vertex   7.071068e-01  0.000000e+00 -7.071068e-01
    endloop
  endfacet
  facet normal  8.628561e-01  3.574068e-01  3.574068e-01
    outer loop
      vertex   1.000000e+00  0.000000e+00  0.000000e+00
      vertex   7.071068e-01  7.071068e-01  0.000000e+00
      vertex   7.071068e-01  0.000000e+00  7.071068e-01
    endloop
  endfacet
  facet normal  3.574068e-01  8.628561e-01  3.574068e-01
    outer loop
      vertex   7.071068e-01  7.071068e-01  0.000000e+00
      vertex   0.000000e+00  1.000000e+00  0.000000e+00
      vertex   0.000000e+00  7.071068e-01  7.071068e-01
    endloop
  endfacet
  facet normal  3.574068e-01  3.574068e-01  8.628561e-01
    outer loop
      vertex   7.071068e-01  0.000000e+00  7.071068e-01
      vertex   0.000000e+00  7.071068e-01  7.071068e-01
      vertex   0.000000e+00  0.000000e+00  1.000000e+00
    endloop
  endfacet
  facet normal -3.574068e-01  8.628561e-01  3.574068e-01
    outer loop
      vertex   0.000000e+00  1.000000e+00  0.000000e+00
      vertex  -7.071068e-01  7.071068e-01  0.000000e+00
      vertex   0.000000e+00  7.071068e-01  7.071068e-01
    endloop
  endfacet
  facet normal -8.628561e-01  3.574068e-01  3.574068e-01
    outer loop
      vertex  -7.071068e-01  7.071068e-01  0.000000e+00
      vertex  -1.000000e+00  0.000000e+00  0.000000e+00
      vertex  -7.071068e-01  0.000000e+00  7.071068e-01
    endloop
  endfacet
  facet normal -3.574068e-01  3.574068e-01  8.628561e-01
    outer loop
      vertex   0.000000e+00  7.071068e-01  7.071068e-01
      vertex  -7.071068e-01  0.000000e+00  7.071068e-01
      vertex   0.000000e+00  0.000000e+00  1.000000e+00
    endloop
  endfacet
  facet normal -8.628561e-01 -3.574068e-01  3.574068e-01
    outer loop
      vertex  -1.000000e+00  0.000000e+00  0.000000e+00
      vertex  -7.071068e-01 -7.071068e-01  0.000000e+00
      vertex  -7.071068e-01  0.000000e+00  7.071068e-01
    endloop
  endfacet
  facet normal -3.574068e-01 -8.628561e-01  3.574068e-01
    outer loop
      vertex  -7.071068e-01 -7.071068e-01  0.000000e+00
      vertex   0.000000e+00 -1.000000e+00  0.000000e+00
      vertex   0.000000e+00 -7.071068e-01  7.071068e-01
    endloop
  endfacet
  facet normal -3.574068e-01 -3.574068e-01  8.628561e-01
    outer loop
      vertex  -7.071068e-01  0.000000e+00  7.071068e-01
      vertex   0.000000e+00 -7.071068e-01  7.071068e-01
      vertex   0.000000e+00  0.000000e+00  1.000000e+00
    endloop
  endfacet
  facet normal  3.574068e-01 -8.628561e-01  3.574068e-01
    outer loop
      vertex   0.000000e+00 -1.000000e+00  0.000000e+00
      vertex   7.071068e-01 -7.071068e-01  0.000000e+00
      vertex   0.000000e+00 -7.071068e-01  7.071068e-01
    endloop
  endfacet
  facet normal  8.628561e-01 -3.574068e-01  3.574068e-01
    outer loop
      vertex   7.071068e-01 -7.071068e-01  0.000000e+00
      vertex   1.000000e+00  0.000000e+00  0.000000e+00
      vertex   7.071068e-01  0.000000e+00  7.071068e-01
    endloop
  endfacet
  facet normal  3.574068e-01 -3.574068e-01  8.628561e-01
    outer loop
      vertex   0.000000e+00 -7.071068e-01  7.071068e-01
      vertex   7.071068e-01  0.000000e+00  7.071068e-01
      vertex   0.000000e+00  0.000000e+00  1.000000e+00
    endloop
  endfacet
  facet normal  3.574068e-01  8.628561e-01 -3.574068e-01
    outer loop
      vertex   0.000000e+00  1.000000e+00  0.000000e+00
      vertex   7.071068e-01  7.071068e-01  0.000000e+00
      vertex   0.000000e+00  7.071068e-01 -7.071068e-01
    endloop
  endfacet
  facet normal  8.628561e-01  3.574068e-01 -3.574068e-01
    outer loop
      vertex   7.071068e-01  7.071068e-01  0.000000e+00
      vertex   1.000000e+00  0.000000e+00  0.000000e+00
      vertex   7.071068e-01  0.000000e+00 -7.071068e-01
    endloop
  endfacet
  facet normal  3.574068e-01  3.574068e-01 -8.628561e-01
    outer loop
      vertex   0.000000e+00  7.071068e-01 -7.071068e-01
      vertex   7.071068e-01  0.000000e+00 -7.071068e-01
      vertex   0.000000e+00  0.000000e+00 -1.000000e+00
    endloop
  endfacet
  facet normal -8.628561e-01  3.574068e-01 -3.574068e-01
    outer loop
      vertex  -1.000000e+00  0.000000e+00  0.000000e+00
      vertex  -7.071068e-01  7.071068e-01  0.000000e+00
      vertex  -7.071068e-01  0.000000e+00 -7.071068e-01
    endloop
  endfacet
  facet normal -3.574068e-01  8.628561e-01 -3.574068e-01
    outer loop
      vertex  -7.071068e-01  7.071068e-01  0.000000e+00
      vertex   0.000000e+00  1.000000e+00  0.000000e+00
      vertex   0.000000e+00  7.071068e-01 -7.071068e-01
    endloop
  endfacet
  facet normal -3.574068e-01  3.574068e-01 -8.628561e-01
    outer loop
      vertex  -7.071068e-01  0.000000e+00 -7.071068e-01
      vertex   0.000000e+00  7.071068e-01 -7.071068e-01
      vertex   0.000000e+00  0.000000e+00 -1.000000e+00
    endloop
  endfacet
  facet normal -3.574068e-01 -8.628561e-01 -3.574068e-01
    outer loop
      vertex   0.000000e+00 -1.000000e+00  0.000000e+00
      vertex  -7.071068e-01 -7.071068e-01  0.000000e+00
      vertex   0.000000e+00 -7.071068e-01 -7.071068e-01
    endloop
  endfacet
  facet normal -8.628561e-01 -3.574068e-01 -3.574068e-01
    outer loop
      vertex  -7.071068e-01 -7.071068e-01  0.000000e+00
      vertex  -1.000000e+00  0.000000e+00  0.000000e+00
      vertex  -7.071068e-01  0.000000e+00 -7.071068e-01
    endloop
  endfacet
  facet normal -3.574068e-01 -3.574068e-01 -8.628561e-01
    outer loop
      vertex   0.000000e+00 -7.071068e-01 -7.071068e-01
      vertex  -7.071068e-01  0.000000e+00 -7.071068e-01
      vertex   0.000000e+00  0.000000e+00 -1.000000e+00
    endloop
  endfacet
  facet normal  8.628561e-01 -3.574068e-01 -3.574068e-01
    outer loop
      vertex   1.000000e+00  0.000000e+00  0.000000e+00
      vertex   7.071068e-01 -7.071068e-01  0.000000e+00
      vertex   7.071068e-01  0.000000e+00 -7.071068e-01
    endloop
  endfacet
  facet normal  3.574068e-01 -8.628561e-01 -3.574068e-01
    outer loop
      vertex   7.071068e-01 -7.071068e-01  0.000000e+00
      vertex   0.000000e+00 -1.000000e+00  0.000000e+00
      vertex   0.000000e+00 -7.071068e-01 -7.071068e-01
    endloop
  endfacet
  facet normal  3.574068e-01 -3.574068e-01 -8.628561e-01
    outer loop
      vertex   7.071068e-01  0.000000e+00 -7.071068e-01
      vertex   0.000000e+00 -7.071068e-01 -7.071068e-01
      vertex   0.000000e+00  0.000000e+00 -1.000000e+00
    endloop
  endfacet
endsolid vcg
